<?xml version="1.0" encoding="utf-8"?>
<!-- Generator: Adobe Illustrator 23.0.1, SVG Export Plug-In . SVG Version: 6.00 Build 0)  -->
<svg version="1.1" id="Layer_1" xmlns="http://www.w3.org/2000/svg" xmlns:xlink="http://www.w3.org/1999/xlink" x="0px" y="0px"
	 viewBox="0 0 1000 1000" style="enable-background:new 0 0 1000 1000;" xml:space="preserve">
<style type="text/css">
	.st0{fill:#105A7F;}
</style>
<g>
	<path class="st0" d="M374.6,597.7V501L305,570.7c6.8,4.8,13.9,9.1,21.2,13c6.6,3.5,12.5,6.2,18.7,8.3c6.2,2.1,11.2,3.4,16.2,4.4
		c5,0.9,9.5,1.3,13.6,1.4 M730.6,589.7c0.6,0.5,1.3,1,2,1.4c1.8,1.1,3.6,2.1,5.5,2.9c2.9,1.3,6,2.2,9.1,2.8
		c4.2,0.9,8.6,1.3,12.9,1.2c4.3,0,8.7-0.4,13.7-1.2c5.5-1,11-2.4,16.3-4.3c6.5-2.3,12.8-5.1,18.9-8.3c7.5-3.9,14.6-8.3,21.5-13.2
		l-52.8-51.6l-175-175.7L526,420.5L422.4,313.6L162.3,570.7c6.9,4.8,14.1,9.2,21.5,13.2c6.7,3.5,13,6.2,18.9,8.3
		c5.3,1.9,10.7,3.3,16.3,4.3c4.5,0.8,9.1,1.2,13.7,1.2c4.3,0,8.7-0.4,12.9-1.2c3.1-0.6,6.2-1.5,9.1-2.8c1.9-0.8,3.8-1.7,5.5-2.8
		l2.1-1.5L379.7,472l41.9-40.3l116.2,116.2l40.7,41.7c0.7,0.5,1.4,1,2.1,1.4c1.8,1.1,3.6,2.1,5.5,2.9c3,1.2,6,2.2,9.1,2.8
		c3.7,0.7,8,1.2,12.9,1.2c4.3,0,8.7-0.4,13.7-1.2c5.6-1,11-2.4,16.3-4.3c6.5-2.3,12.8-5.1,18.9-8.3c7.5-3.9,14.6-8.3,21.5-13.2
		l-93.3-91.3l17.2-17.2l80.7,80.7l47.1,46.6 M729.4,103l229.3,397.3l-229.2,397H270.6L41.3,500l229.3-397.3L729.4,103z"/>
	<path class="st0" d="M586.4,480.7l-61.1-61l4.4-4.4l61.6,60.8L586.4,480.7z"/>
</g>
</svg>
